
        <svg xmlns="http://www.w3.org/2000/svg" xmlns:xlink="http://www.w3.org/1999/xlink" version="1.1" width="3171.4285714285716" 
        height="2170.519409179687" viewBox="0 0 3171.4285714285716 2170.519409179687">
			
			<g transform="scale(8.57142857142857) translate(10, 10)">
				<defs id="SvgjsDefs17261"><linearGradient id="SvgjsLinearGradient17272"><stop id="SvgjsStop17273" stop-color="#8f5e25" offset="0"></stop><stop id="SvgjsStop17274" stop-color="#fbf4a1" offset="0.5"></stop><stop id="SvgjsStop17275" stop-color="#8f5e25" offset="1"></stop></linearGradient><linearGradient id="SvgjsLinearGradient17276"><stop id="SvgjsStop17277" stop-color="#8f5e25" offset="0"></stop><stop id="SvgjsStop17278" stop-color="#fbf4a1" offset="0.5"></stop><stop id="SvgjsStop17279" stop-color="#8f5e25" offset="1"></stop></linearGradient></defs><g id="SvgjsG17262" featureKey="LwVBM5-0" transform="matrix(1.0359439414844482,0,0,1.0359439414844482,141.82028029257776,-7.068556176586098)" fill="url(#SvgjsLinearGradient17272)"><title xmlns="http://www.w3.org/2000/svg">holiday autumn thanksgiving cornucopia</title><path xmlns="http://www.w3.org/2000/svg" d="M46.1475,40.2251c-.1382.1475-.2837.2848-.4234.43A35.3621,35.3621,0,0,1,41.37,39.28a43.3463,43.3463,0,0,0,3.6163-3.6061,31.2373,31.2373,0,0,0,4.1793.9936Q47.7492,38.5125,46.1475,40.2251ZM39.922,45.7922a41.394,41.394,0,0,1-4.6145-2.0005,43.9039,43.9039,0,0,0,4.336-3.06,37.9349,37.9349,0,0,0,4.43,1.563A47.4739,47.4739,0,0,1,39.922,45.7922ZM15.5679,27c.1939.3758.3874.7519.5927,1.1213A23.8516,23.8516,0,0,1,13,28.4645V27Zm14.5762-1.1934c.5372.6413,1.0931,1.265,1.6785,1.8589a29.1616,29.1616,0,0,1-3.5835,2.7174,34.465,34.465,0,0,1-2.943-3.5841c.1172-.0707.2369-.1361.3531-.2086Q27.9294,26.3018,30.1441,25.8066Zm15.07-6.2785a34.1471,34.1471,0,0,1-6.8839,10.8473,29.687,29.687,0,0,1-3.597-2.7176,31.1325,31.1325,0,0,0,3.6479-4.5073A48.1351,48.1351,0,0,0,45.2145,19.5281Zm5.2889,15.3105a29.1077,29.1077,0,0,1-4.1059-.8358,42.5407,42.5407,0,0,0,2.8888-4.0541,25.8837,25.8837,0,0,0,3.9133.5092A47.98,47.98,0,0,1,50.5034,34.8386Zm-6.1449-1.486a29.8426,29.8426,0,0,1-4.2749-1.9246,36.7367,36.7367,0,0,0,2.9337-3.6521,25.7388,25.7388,0,0,0,4.2205,1.658A40.593,40.593,0,0,1,44.3585,33.3526Zm-5.0238,5.052a35.706,35.706,0,0,1-4.3271-2.37,37.65,37.65,0,0,0,3.6394-3.13,31.868,31.868,0,0,0,4.2954,2.0508A41.4269,41.4269,0,0,1,39.3347,38.4046ZM13,37.0894a32.3184,32.3184,0,0,0,8.5526-1.4076,43.5011,43.5011,0,0,0,3.5922,3.5908A36.18,36.18,0,0,1,13,41.73Zm10.6061-2.1131a31.4909,31.4909,0,0,0,4.3-2.0555,38.1064,38.1064,0,0,0,3.6168,3.1078,36.2146,36.2146,0,0,1-4.324,2.374A41.5822,41.5822,0,0,1,23.6061,34.9763Zm6.0671-3.1445a31.1287,31.1287,0,0,0,3.611-2.786,31.6834,31.6834,0,0,0,3.6067,2.7788,35.6922,35.6922,0,0,1-3.6217,3.0185A36.0422,36.0422,0,0,1,29.6732,31.8318Zm3.6013-5.5437q-.4955-.5016-.9665-1.0283,1.32-.3621,2.6128-.8Q34.1334,25.4117,33.2745,26.2881Zm-6.79,5.1442a29.5706,29.5706,0,0,1-4.3015,1.9249A40.3335,40.3335,0,0,1,19.2985,29.45a25.68,25.68,0,0,0,4.2373-1.6836A36.3512,36.3512,0,0,0,26.4844,31.4323Zm-6.3514,2.574A30.34,30.34,0,0,1,13,35.0894V30.4645a25.87,25.87,0,0,0,4.243-.5065A42.1567,42.1567,0,0,0,20.133,34.0063ZM13,43.73a38.1812,38.1812,0,0,0,13.8729-2.9972,43.97,43.97,0,0,0,4.3589,3.0581A42.3366,42.3366,0,0,1,13,48.3562Zm15.9248-3.9434A38.2048,38.2048,0,0,0,33.28,37.2717,37.83,37.83,0,0,0,37.6176,39.79a41.9459,41.9459,0,0,1-4.36,2.8942A41.9361,41.9361,0,0,1,28.9248,39.7863ZM54.2179,28.49a23.8426,23.8426,0,0,1-3.85-.3652,41.2538,41.2538,0,0,0,5.1363-17.1458c1.24-1.3118,2.4475-2.6888,3.6087-4.1557A48.1932,48.1932,0,0,1,54.2179,28.49Zm-.9615-15.2534a39.3005,39.3005,0,0,1-4.9346,14.4291,23.7731,23.7731,0,0,1-4.1934-1.568,35.5548,35.5548,0,0,0,3.8535-8.45A54.0056,54.0056,0,0,0,53.2564,13.2365ZM19.2832,27c.377,0,.7473-.0233,1.122-.0314-.72.2716-1.4549.5-2.1981.7-.1278-.2219-.2545-.4442-.3779-.6686ZM8,59a3.0033,3.0033,0,0,1-3-3V26a3,3,0,0,1,6,0V56A3.0033,3.0033,0,0,1,8,59Zm5-8.6438a44.2929,44.2929,0,0,0,20.2648-5.384,43.4784,43.4784,0,0,0,4.6915,2.2164A45.8385,45.8385,0,0,1,13,54.9941Z"></path></g><g id="SvgjsG17263" featureKey="textGroupContainer" transform="matrix(1,0,0,1,0,104)" fill="url(#SvgjsLinearGradient17276)"><rect xmlns="http://www.w3.org/2000/svg" y="0" x="0" height="1" width="1" opacity="0"></rect><rect xmlns="http://www.w3.org/2000/svg" y="127.22727272727272" x="0" width="350" height="2"></rect><rect xmlns="http://www.w3.org/2000/svg" y="-30" x="0" width="350" height="2"></rect></g><g id="SvgjsG17264" featureKey="YhTCwJ-0" transform="matrix(2.343331538361971,0,0,2.343331538361971,-0.6561310876167716,74.67407668925756)" fill="#451b6d"><path d="M0.28 7.359999999999999 l0 -1.72 l11.66 0 l0 1.72 l-4.86 0 l0 12.64 l-1.94 0 l0 -12.64 l-4.86 0 z M23.200000000000003 11.58 l0 -5.94 l1.94 0 l0 14.36 l-1.94 0 l0 -6.7 l-7.5 0 l0 6.7 l-1.94 0 l0 -14.36 l1.94 0 l0 5.94 l7.5 0 z M38.980000000000004 18.28 l0 1.72 l-10.6 0 l0 -14.36 l10.46 0 l0 1.72 l-8.52 0 l0 4.4 l7.86 0 l0 1.72 l-7.86 0 l0 4.8 l8.66 0 z M49.22 13.48 l0 6.52 l-1.94 0 l0 -14.36 l9.94 0 l0 1.72 l-8 0 l0 4.4 l7.04 0 l0 1.72 l-7.04 0 z M61.54 5.640000000000001 l0 14.36 l-1.94 0 l0 -14.36 l1.94 0 z M74.38 17.240000000000002 l0 -11.6 l1.88 0 l0 14.36 l-2.18 0 l-7.3 -11.6 l-0.04 0 l0 11.6 l-1.88 0 l0 -14.36 l2.3 0 l7.18 11.6 l0.04 0 z M87.32 15.82 l-5.76 0 l-1.5 4.18 l-2 0 l5.4 -14.36 l2.2 0 l5.2 14.36 l-2.12 0 z M82.16 14.1 l4.46 0 l-2.12 -6.32 l-0.04 0 z M102.16 17.240000000000002 l0 -11.6 l1.88 0 l0 14.36 l-2.18 0 l-7.3 -11.6 l-0.04 0 l0 11.6 l-1.88 0 l0 -14.36 l2.3 0 l7.18 11.6 l0.04 0 z M119.04 9.96 l-1.88 0 c-0.54 -2.52 -2.64 -2.98 -4.02 -2.98 c-2.6 0 -4.7 1.92 -4.7 5.7 c0 3.38 1.2 5.98 4.76 5.98 c1.26 0 3.44 -0.6 4.1 -3.94 l1.88 0 c-0.8 5.42 -5.2 5.66 -6.28 5.66 c-3.26 0 -6.46 -2.12 -6.46 -7.64 c0 -4.42 2.52 -7.48 6.7 -7.48 c3.7 0 5.62 2.3 5.9 4.7 z M123.76 5.640000000000001 l0 14.36 l-1.94 0 l0 -14.36 l1.94 0 z M135.1 15.82 l-5.76 0 l-1.5 4.18 l-2 0 l5.4 -14.36 l2.2 0 l5.2 14.36 l-2.12 0 z M129.94 14.1 l4.46 0 l-2.12 -6.32 l-0.04 0 z M142.36 5.640000000000001 l0 12.64 l7.28 0 l0 1.72 l-9.22 0 l0 -14.36 l1.94 0 z"></path></g><g id="SvgjsG17265" featureKey="YhTCwJ-1" transform="matrix(3.782148222793818,0,0,3.782148222793818,-3.7065071339455042,112.1059012859083)" fill="#451b6d"><path d="M12 9.84 l-1.82 0 c-0.1 -2.22 -1.94 -2.92 -3.56 -2.92 c-1.22 0 -3.28 0.34 -3.28 2.52 c0 1.22 0.86 1.62 1.7 1.82 l4.1 0.94 c1.86 0.44 3.26 1.56 3.26 3.84 c0 3.4 -3.16 4.34 -5.62 4.34 c-2.66 0 -3.7 -0.8 -4.34 -1.38 c-1.22 -1.1 -1.46 -2.3 -1.46 -3.64 l1.82 0 c0 2.6 2.12 3.36 3.96 3.36 c1.4 0 3.76 -0.36 3.76 -2.42 c0 -1.5 -0.7 -1.98 -3.06 -2.54 l-2.94 -0.68 c-0.94 -0.22 -3.06 -0.88 -3.06 -3.38 c0 -2.24 1.46 -4.44 4.94 -4.44 c5.02 0 5.52 3 5.6 4.58 z M25.66 18.28 l0 1.72 l-10.6 0 l0 -14.36 l10.46 0 l0 1.72 l-8.52 0 l0 4.4 l7.86 0 l0 1.72 l-7.86 0 l0 4.8 l8.66 0 z M40.16 9.96 l-1.88 0 c-0.54 -2.52 -2.64 -2.98 -4.02 -2.98 c-2.6 0 -4.7 1.92 -4.7 5.7 c0 3.38 1.2 5.98 4.76 5.98 c1.26 0 3.44 -0.6 4.1 -3.94 l1.88 0 c-0.8 5.42 -5.2 5.66 -6.28 5.66 c-3.26 0 -6.46 -2.12 -6.46 -7.64 c0 -4.42 2.52 -7.48 6.7 -7.48 c3.7 0 5.62 2.3 5.9 4.7 z M44.82 13.84 l0 6.16 l-1.94 0 l0 -14.36 l6.64 0 c2.36 0 4.72 0.82 4.72 3.86 c0 2.12 -1.08 2.9 -2 3.44 c0.82 0.34 1.64 0.7 1.72 2.7 l0.12 2.6 c0.02 0.8 0.12 1.1 0.72 1.44 l0 0.32 l-2.38 0 c-0.28 -0.88 -0.34 -3.06 -0.34 -3.6 c0 -1.18 -0.24 -2.56 -2.56 -2.56 l-4.7 0 z M44.82 7.300000000000001 l0 4.88 l4.5 0 c1.42 0 2.92 -0.36 2.92 -2.48 c0 -2.22 -1.62 -2.4 -2.58 -2.4 l-4.84 0 z M67.88 18.28 l0 1.72 l-10.6 0 l0 -14.36 l10.46 0 l0 1.72 l-8.52 0 l0 4.4 l7.86 0 l0 1.72 l-7.86 0 l0 4.8 l8.66 0 z M69.17999999999999 7.359999999999999 l0 -1.72 l11.66 0 l0 1.72 l-4.86 0 l0 12.64 l-1.94 0 l0 -12.64 l-4.86 0 z M93.11999999999999 9.84 l-1.82 0 c-0.1 -2.22 -1.94 -2.92 -3.56 -2.92 c-1.22 0 -3.28 0.34 -3.28 2.52 c0 1.22 0.86 1.62 1.7 1.82 l4.1 0.94 c1.86 0.44 3.26 1.56 3.26 3.84 c0 3.4 -3.16 4.34 -5.62 4.34 c-2.66 0 -3.7 -0.8 -4.34 -1.38 c-1.22 -1.1 -1.46 -2.3 -1.46 -3.64 l1.82 0 c0 2.6 2.12 3.36 3.96 3.36 c1.4 0 3.76 -0.36 3.76 -2.42 c0 -1.5 -0.7 -1.98 -3.06 -2.54 l-2.94 -0.68 c-0.94 -0.22 -3.06 -0.88 -3.06 -3.38 c0 -2.24 1.46 -4.44 4.94 -4.44 c5.02 0 5.52 3 5.6 4.58 z"></path></g><g id="SvgjsG17266" featureKey="duLK5n-0" transform="matrix(0.8507219629349059,0,0,0.8507219629349059,31.030177481493688,203.48347029938435)" fill="#1c0708"><path d="M10.16 13.719999999999999 c0.88 0.62 1.4 1.54 1.4 2.62 c0 2.08 -1.92 3.66 -3.92 3.66 l-6.5 0 l0 -12.24 l6.1 0 c1.6 0 2.92 0.86 3.62 2.28 c0.2 0.46 0.3 0.92 0.3 1.4 c0 0.9 -0.36 1.64 -1 2.28 z M4.14 10.54 l0 1.96 l3.1 0 c0.52 0 0.92 -0.5 0.92 -1 c0 -0.52 -0.38 -0.96 -0.92 -0.96 l-3.1 0 z M4.14 15.280000000000001 l0 1.94 l3.5 0 c0.54 0 0.92 -0.44 0.92 -0.96 c0 -0.26 -0.1 -0.5 -0.28 -0.7 c-0.18 -0.18 -0.4 -0.28 -0.64 -0.28 l-3.5 0 z M22.692500000000003 7.76 l3 0 l0 7.24 c0 3.18 -2.28 5.1 -5.3 5.1 c-3.1 0 -5.3 -2.04 -5.3 -5.1 l0 -7.24 l3 0 l0 7.24 c0 1.44 0.86 2.32 2.3 2.32 c1.48 0 2.3 -0.86 2.3 -2.32 l0 -7.24 z M29.765000000000004 7.76 l3 0 l0 12.24 l-3 0 l0 -12.24 z M46.11750000000001 17.22 l0 2.78 l-9.1 0 l0 -12.24 l3 0 l0 9.46 l6.1 0 z M53.93000000000001 20 l-4.3 0 l0 -12.24 l4.3 0 c3.74 0 6.3 2.44 6.3 6.12 c0 3.78 -2.7 6.12 -6.3 6.12 z M52.63000000000001 10.54 l0 6.68 l1.3 0 c2.12 0 3.3 -1.34 3.3 -3.34 c0 -0.46 -0.06 -0.88 -0.18 -1.3 c-0.52 -1.46 -1.66 -2.04 -3.12 -2.04 l-1.3 0 z M64.06250000000001 7.76 l3 0 l0 12.24 l-3 0 l0 -12.24 z M79.11500000000001 7.76 l3 0 l0 12.24 l-3 0 l-4.8 -7.16 l0 7.16 l-3 0 l0 -12.24 l3 0 l4.8 7.16 l0 -7.16 z M97.22750000000002 12.5 l0 6.8 c-1.42 0.54 -3.2 0.84 -4.72 0.84 c-3.9 0 -6.52 -2.34 -6.52 -6.2 c0 -4.22 3.14 -6.28 6.98 -6.28 c0.26 0 0.54 0 0.86 0.02 c0.3 0.02 0.62 0.06 0.96 0.08 c0.62 0.08 1.24 0.16 1.84 0.34 l0 3.06 c-0.22 -0.1 -0.46 -0.18 -0.74 -0.26 c-0.3 -0.06 -0.6 -0.12 -0.92 -0.18 c-0.64 -0.12 -1.32 -0.16 -1.98 -0.16 c-2.54 0 -4 0.78 -4 3.38 c0 2.54 1.34 3.3 3.62 3.3 c0.24 0 0.5 -0.02 0.78 -0.04 c0.26 -0.02 0.54 -0.04 0.84 -0.06 l0 -1.86 l-2.6 0 l0 -2.78 l5.6 0 z M115.09250000000002 17.52 l-4.5 0 l-0.88 2.48 l-3.26 0 l4.9 -12.24 l3 0 l4.9 12.24 l-3.28 0 z M111.57250000000002 14.74 l2.54 0 l-1.26 -3.56 z M137.87750000000003 13.719999999999999 c0.88 0.62 1.4 1.54 1.4 2.62 c0 2.08 -1.92 3.66 -3.92 3.66 l-6.5 0 l0 -12.24 l6.1 0 c1.6 0 2.92 0.86 3.62 2.28 c0.2 0.46 0.3 0.92 0.3 1.4 c0 0.9 -0.36 1.64 -1 2.28 z M131.85750000000002 10.54 l0 1.96 l3.1 0 c0.52 0 0.92 -0.5 0.92 -1 c0 -0.52 -0.38 -0.96 -0.92 -0.96 l-3.1 0 z M131.85750000000002 15.280000000000001 l0 1.94 l3.5 0 c0.54 0 0.92 -0.44 0.92 -0.96 c0 -0.26 -0.1 -0.5 -0.28 -0.7 c-0.18 -0.18 -0.4 -0.28 -0.64 -0.28 l-3.5 0 z M142.97 7.76 l9.1 0 l0 2.78 l-6.1 0 l0 1.96 l4.9 0 l0 2.78 l-4.9 0 l0 1.94 l6.1 0 l0 2.78 l-9.1 0 l0 -12.24 z M155.0425 7.76 l10.2 0 l0 2.78 l-3.6 0 l0 9.46 l-3 0 l0 -9.46 l-3.6 0 l0 -2.78 z M168.075 7.76 l10.2 0 l0 2.78 l-3.6 0 l0 9.46 l-3 0 l0 -9.46 l-3.6 0 l0 -2.78 z M181.8275 7.76 l9.1 0 l0 2.78 l-6.1 0 l0 1.96 l4.9 0 l0 2.78 l-4.9 0 l0 1.94 l6.1 0 l0 2.78 l-9.1 0 l0 -12.24 z M197.61999999999998 10.58 l0 2.92 l2.8 0 c0.92 0 1.46 -0.54 1.46 -1.46 s-0.54 -1.46 -1.46 -1.46 l-2.8 0 z M202.16 15.48 c0.56 0.76 1.12 1.52 1.7 2.26 c0.56 0.74 1.12 1.5 1.68 2.26 l-3.66 0 c-0.72 -0.96 -1.42 -1.92 -2.12 -2.88 c-0.7 -0.94 -1.42 -1.9 -2.14 -2.86 l0 5.74 l-3 0 l0 -12.24 l5.8 0 c2.28 0 4.22 1.74 4.22 4.04 c0 1.62 -1 3.04 -2.48 3.68 z M214.46499999999997 7.76 l10.2 0 l0 2.78 l-3.6 0 l0 9.46 l-3 0 l0 -9.46 l-3.6 0 l0 -2.78 z M233.6775 17.32 c2.18 0 3.3 -1.4 3.3 -3.44 c0 -2.16 -1.2 -3.44 -3.3 -3.44 c-2.2 0 -3.3 1.4 -3.3 3.44 c0 2.12 1.22 3.44 3.3 3.44 z M233.6775 20.1 c-3.76 0 -6.3 -2.56 -6.3 -6.22 c0 -3.78 2.66 -6.22 6.3 -6.22 c3.78 0 6.3 2.54 6.3 6.22 c0 3.8 -2.64 6.22 -6.3 6.22 z M246.82999999999998 13.26 l0 6.74 l-3 0 l0 -12.24 l3 0 l3.82 6.76 l3.82 -6.76 l3 0 l0 12.24 l-3 0 l0 -6.74 l-2.32 3.98 l-3 0 z M267.6425 17.32 c2.18 0 3.3 -1.4 3.3 -3.44 c0 -2.16 -1.2 -3.44 -3.3 -3.44 c-2.2 0 -3.3 1.4 -3.3 3.44 c0 2.12 1.22 3.44 3.3 3.44 z M267.6425 20.1 c-3.76 0 -6.3 -2.56 -6.3 -6.22 c0 -3.78 2.66 -6.22 6.3 -6.22 c3.78 0 6.3 2.54 6.3 6.22 c0 3.8 -2.64 6.22 -6.3 6.22 z M280.795 10.58 l0 2.92 l2.8 0 c0.92 0 1.46 -0.54 1.46 -1.46 s-0.54 -1.46 -1.46 -1.46 l-2.8 0 z M285.33500000000004 15.48 c0.56 0.76 1.12 1.52 1.7 2.26 c0.56 0.74 1.12 1.5 1.68 2.26 l-3.66 0 c-0.72 -0.96 -1.42 -1.92 -2.12 -2.88 c-0.7 -0.94 -1.42 -1.9 -2.14 -2.86 l0 5.74 l-3 0 l0 -12.24 l5.8 0 c2.28 0 4.22 1.74 4.22 4.04 c0 1.62 -1 3.04 -2.48 3.68 z M294.96750000000003 10.58 l0 2.92 l2.8 0 c0.92 0 1.46 -0.54 1.46 -1.46 s-0.54 -1.46 -1.46 -1.46 l-2.8 0 z M299.50750000000005 15.48 c0.56 0.76 1.12 1.52 1.7 2.26 c0.56 0.74 1.12 1.5 1.68 2.26 l-3.66 0 c-0.72 -0.96 -1.42 -1.92 -2.12 -2.88 c-0.7 -0.94 -1.42 -1.9 -2.14 -2.86 l0 5.74 l-3 0 l0 -12.24 l5.8 0 c2.28 0 4.22 1.74 4.22 4.04 c0 1.62 -1 3.04 -2.48 3.68 z M311.92 17.32 c2.18 0 3.3 -1.4 3.3 -3.44 c0 -2.16 -1.2 -3.44 -3.3 -3.44 c-2.2 0 -3.3 1.4 -3.3 3.44 c0 2.12 1.22 3.44 3.3 3.44 z M311.92 20.1 c-3.76 0 -6.3 -2.56 -6.3 -6.22 c0 -3.78 2.66 -6.22 6.3 -6.22 c3.78 0 6.3 2.54 6.3 6.22 c0 3.8 -2.64 6.22 -6.3 6.22 z M334.83250000000004 7.76 l2.92 0 l-2.26 12.24 l-4.44 0 l-1.6 -7.14 l-1.7 7.14 l-4.68 0 l-1.98 -12.24 l3.06 0 l1.38 9.16 l1.8 -7.14 l4.26 0 l1.72 7.14 z"></path></g>
			</g>
		</svg>
	